#!OML:ASF E:\Steps\Project 1\Capture day 1\Session 2\Subject.ASF
:FULLY-SPECIFIED
:DEGREES
175
root 1.0111 18.7339 19.9295 -155.692 -3.36816 192.418
lowerback -21.1434 -5.40966 -12.3252
upperback 1.28718 -4.2355 -0.348333
thorax 14.358 -2.94384 5.14781
lowerneck -5.52238 -11.3896 -0.130448
upperneck 25.2046 -15.9277 5.04604
head 9.27119 -6.47546 0.27053
rclavicle 3.97569e-014 -9.22361e-014
rhumerus -46.2212 -17.6641 -78.6639
rradius 37.7097
rwrist -6.3588
rhand -2.68696 -54.1804
rfingers 7.12502
rthumb 23.0144 -82.8264
lclavicle 3.97569e-014 -9.22361e-014
lhumerus -29.6299 -2.88635 65.1799
lradius 35.5364
lwrist 1.24565
lhand -20.5197 -11.0575
lfingers 7.12502
lthumb 5.83807 18.8421
rfemur -36.2574 0.775953 3.22742
rtibia 17.9423
rfoot 2.92927 -20.1685
rtoes -12.6448
lfemur -38.7327 -7.48462 3.73299
ltibia 49.0491
lfoot -29.6232 5.13553
ltoes -21.7421
176
root 1.08969 18.7061 19.9066 -155.612 -3.7002 192.341
lowerback -21.1413 -5.52767 -12.5993
upperback 1.31206 -4.31882 -0.429629
thorax 14.4206 -3.00457 5.17339
lowerneck -5.55744 -11.2825 -0.048913
upperneck 25.1499 -15.7922 5.05162
head 9.24724 -6.4074 0.273443
rclavicle -3.18055e-014 1.59028e-014
rhumerus -46.3086 -17.6763 -78.7344
rradius 37.7158
rwrist -6.28749
rhand -2.7359 -53.8464
rfingers 7.12502
rthumb 22.9674 -82.4983
lclavicle -3.18055e-014 1.59028e-014
lhumerus -29.5763 -3.19652 64.7443
lradius 35.8666
lwrist 1.43197
lhand -20.64 -10.8114
lfingers 7.12502
lthumb 5.72196 19.0914
rfemur -35.8422 0.188961 2.94587
rtibia 17.1247
rfoot 3.52296 -20.0389
rtoes -12.9502
lfemur -38.9538 -7.77439 4.13086
ltibia 49.2203
lfoot -29.6657 5.29717
ltoes -22.7517
177
root 1.16926 18.6786 19.881 -155.634 -4.26665 192.129
lowerback -20.9631 -5.76584 -12.9536
upperback 1.26306 -4.58215 -0.490298
thorax 14.3386 -3.14682 5.21458
lowerneck -5.17194 -11.2376 -0.183938
upperneck 25.0127 -15.7021 5.17361
head 9.14724 -6.37865 0.36989
rclavicle 3.18055e-014 2.54444e-014
rhumerus -46.6964 -17.3949 -78.7304
rradius 37.8353
rwrist -6.41479
rhand -2.673 -53.5516
rfingers 7.12502
rthumb 23.0278 -82.1959
lclavicle 3.18055e-014 2.54444e-014
lhumerus -30.0178 -3.53766 64.3494
lradius 36.4115
lwrist 1.49211
lhand -21.0668 -10.6959
lfingers 7.12502
lthumb 5.30984 19.2176
rfemur -35.0528 -0.0242074 2.38016
rtibia 16.0463
rfoot 3.79669 -20.6459
rtoes -12.3077
lfemur -39.2765 -8.27895 4.46226
ltibia 49.5788
lfoot -29.7313 4.92745
ltoes -21.8634
178
root 1.25248 18.6551 19.8597 -155.687 -4.60326 192.125
lowerback -20.5321 -5.90781 -13.1313
upperback 0.967045 -4.83758 -0.50083
thorax 13.7994 -3.24974 5.25008
lowerneck -4.30977 -11.1251 -0.550856
upperneck 24.9289 -15.4508 5.36701
head 8.99804 -6.28329 0.570169
rclavicle -9.54166e-015 -3.81667e-014
rhumerus -47.5463 -16.8116 -78.6865
rradius 38.0597
rwrist -6.56311
rhand -2.5129 -53.6784
rfingers 7.12502
rthumb 23.1814 -82.3035
lclavicle -9.54166e-015 -3.81667e-014
lhumerus -30.8783 -3.84682 63.9228
lradius 36.8867
lwrist 1.50513
lhand -21.0481 -11.006
lfingers 7.12502
lthumb 5.3279 18.9071
rfemur -34.4885 0.300011 1.97305
rtibia 15.1483
rfoot 3.98134 -21.5139
rtoes -10.9273
lfemur -39.4369 -8.44148 4.92766
ltibia 49.9228
lfoot -29.8685 4.83463
ltoes -21.8661
179
root 1.33648 18.631 19.8374 -155.691 -4.73545 192.182
lowerback -20.5094 -5.92046 -13.2415
upperback 0.877132 -4.84021 -0.629283
thorax 13.6751 -3.25025 5.167
lowerneck -3.78057 -11.0147 -0.629654
upperneck 24.9467 -15.2631 5.54634
head 8.92273 -6.17927 0.693645
rclavicle 1.51076e-014 3.81667e-014
rhumerus -48.1569 -16.6104 -78.8158
rradius 38.343
rwrist -6.59981
rhand -2.40753 -53.9524
rfingers 7.12502
rthumb 23.2825 -82.5647
lclavicle 1.51076e-014 3.81667e-014
lhumerus -31.0569 -4.35713 63.3935
lradius 37.1606
lwrist 1.65015
lhand -20.8651 -11.2422
lfingers 7.12502
lthumb 5.50461 18.6663
rfemur -34.1836 0.408741 1.76064
rtibia 14.5228
rfoot 4.34045 -21.8263
rtoes -10.9223
lfemur -39.4386 -8.42831 5.36613
ltibia 50.1041
lfoot -29.9439 5.09762
ltoes -23.166
180
root 1.42322 18.6067 19.8136 -155.687 -4.86965 192.124
lowerback -20.2305 -5.98772 -13.5802
upperback 0.989268 -4.87712 -0.61776
thorax 13.6921 -3.29501 5.36678
lowerneck -4.64047 -11.0334 -0.596288
upperneck 25.2848 -15.3548 5.40874
head 9.18799 -6.20397 0.574319
rclavicle -3.65764e-014 4.13472e-014
rhumerus -48.0712 -16.2763 -78.9173
rradius 38.5882
rwrist -6.84892
rhand -2.31974 -54.1206
rfingers 7.12502
rthumb 23.3667 -82.7222
lclavicle -3.65764e-014 4.13472e-014
lhumerus -30.7297 -4.41391 63.0826
lradius 37.3777
lwrist 1.64539
lhand -20.9554 -11.0437
lfingers 7.12502
lthumb 5.41741 18.8671
rfemur -33.8569 0.58779 1.37509
rtibia 13.8945
rfoot 4.3435 -22.2986
rtoes -10.5062
lfemur -39.4084 -8.53097 5.70759
ltibia 50.2017
lfoot -30.07 5.13872
ltoes -23.7317
181
root 1.51494 18.5825 19.7936 -155.633 -4.94276 192.119
lowerback -20.2554 -6.00955 -13.7743
upperback 0.972004 -4.85628 -0.724704
thorax 13.6884 -3.29792 5.35605
lowerneck -4.40398 -11.1147 -0.639258
upperneck 25.2422 -15.4688 5.50104
head 9.14612 -6.25827 0.614713
rclavicle 2.8625e-014 2.22639e-014
rhumerus -48.3887 -16.1298 -79.0312
rradius 38.7656
rwrist -7.0769
rhand -2.35919 -54.0924
rfingers 7.12502
rthumb 23.3288 -82.6988
lclavicle 2.8625e-014 2.22639e-014
lhumerus -30.8161 -4.80495 62.6216
lradius 37.6806
lwrist 1.69288
lhand -20.9516 -10.768
lfingers 7.12502
lthumb 5.42104 19.1427
rfemur -33.7026 1.06834 0.976528
rtibia 13.3399
rfoot 4.21236 -23.0275
rtoes -9.2977
lfemur -39.4159 -8.56923 6.15226
ltibia 50.2515
lfoot -30.3209 4.79749
ltoes -22.5426
182
root 1.60702 18.5553 19.776 -155.489 -5.04113 192.206
lowerback -20.1927 -6.00711 -13.9343
upperback 0.934881 -4.83133 -0.7303
thorax 13.617 -3.29479 5.45307
lowerneck -4.48342 -11.1576 -0.65607
upperneck 25.4634 -15.5254 5.46087
head 9.23918 -6.27216 0.590089
rclavicle 4.29375e-014 3.18055e-014
rhumerus -48.6538 -16.077 -79.0403
rradius 38.9797
rwrist -7.14778
rhand -2.63797 -54.2664
rfingers 7.12502
rthumb 23.0614 -82.9065
lclavicle 4.29375e-014 3.18055e-014
lhumerus -30.7959 -5.10198 62.2743
lradius 37.976
lwrist 1.8583
lhand -20.7901 -10.7674
lfingers 7.12502
lthumb 5.57698 19.1392
rfemur -33.7153 1.41359 0.744505
rtibia 12.9074
rfoot 4.39672 -23.579
rtoes -8.16074
lfemur -39.5627 -8.51478 6.72919
ltibia 50.3894
lfoot -30.5525 4.64208
ltoes -21.9784
183
root 1.69916 18.5265 19.7539 -155.417 -5.25382 192.318
lowerback -20.0644 -5.9912 -13.9353
upperback 0.901777 -4.83239 -0.813877
thorax 13.4945 -3.28748 5.36689
lowerneck -4.34291 -11.1668 -0.558076
upperneck 25.4671 -15.5492 5.52538
head 9.2136 -6.26577 0.60392
rclavicle 3.89618e-014 -1.27222e-014
rhumerus -49.0703 -15.9813 -79.2
rradius 39.3099
rwrist -7.37072
rhand -2.69704 -53.9113
rfingers 7.12502
rthumb 23.0047 -82.5585
lclavicle 3.89618e-014 -1.27222e-014
lhumerus -30.8763 -5.57533 61.761
lradius 38.4231
lwrist 2.2534
lhand -20.5612 -10.7701
lfingers 7.12502
lthumb 5.79803 19.1306
rfemur -33.479 1.70464 0.571112
rtibia 12.2419
rfoot 4.69846 -24.0329
rtoes -7.56391
lfemur -39.6346 -8.5562 7.35264
ltibia 50.4696
lfoot -30.7238 4.80871
ltoes -22.6116
184
root 1.79233 18.4988 19.7317 -155.359 -5.43665 192.461
lowerback -20.1425 -6.03744 -13.8913
upperback 0.875161 -4.89578 -0.851969
thorax 13.5124 -3.31328 5.27158
lowerneck -3.73048 -11.1247 -0.703118
upperneck 25.0388 -15.4696 5.74132
head 8.97843 -6.26146 0.748576
rclavicle -1.66979e-014 -1.94014e-013
rhumerus -49.4099 -15.5225 -79.4118
rradius 39.5654
rwrist -7.78989
rhand -2.2912 -53.0003
rfingers 7.12502
rthumb 23.3941 -81.5984
lclavicle -1.66979e-014 -1.94014e-013
lhumerus -31.0831 -5.78199 61.2772
lradius 38.7927
lwrist 2.35003
lhand -20.8198 -10.5946
lfingers 7.12502
lthumb 5.54834 19.3127
rfemur -33.2543 2.0927 0.452032
rtibia 11.5673
rfoot 5.00402 -24.4018
rtoes -7.98151
lfemur -39.6487 -8.54968 7.99353
ltibia 50.4824
lfoot -30.8832 4.82162
ltoes -21.6728
185
root 1.8877 18.4714 19.7148 -155.187 -5.54364 192.574
lowerback -20.4111 -6.00729 -13.8661
upperback 1.28909 -4.75239 -0.90502
thorax 14.1306 -3.27884 5.20534
lowerneck -4.79887 -11.1633 -0.398629
upperneck 24.8918 -15.6803 5.70983
head 9.10342 -6.34796 0.603334
rclavicle -1.03368e-014 -3.18055e-015
rhumerus -48.592 -15.6603 -79.7325
rradius 39.5645
rwrist -7.84593
rhand -2.01806 -53.0763
rfingers 7.12502
rthumb 23.6561 -81.6408
lclavicle -1.03368e-014 -3.18055e-015
lhumerus -30.0336 -5.64589 60.8027
lradius 38.785
lwrist 2.15098
lhand -21.3731 -10.2337
lfingers 7.12502
lthumb 5.01408 19.687
rfemur -33.3537 2.33657 0.366721
rtibia 11.1902
rfoot 5.31089 -24.7004
rtoes -8.91383
lfemur -39.8558 -8.3974 8.59965
ltibia 50.6934
lfoot -30.9373 4.9658
ltoes -20.907
186
root 1.98609 18.4409 19.696 -155.035 -5.80299 192.463
lowerback -20.0877 -6.15612 -14.1504
upperback 0.909359 -4.99951 -0.874768
thorax 13.5676 -3.38321 5.35144
lowerneck -3.78559 -11.082 -0.837315
upperneck 24.8257 -15.4191 5.74368
head 8.92253 -6.27594 0.771677
rclavicle 1.59028e-014 2.8625e-014
rhumerus -49.5122 -15.0159 -79.6255
rradius 39.8109
rwrist -7.95107
rhand -1.96933 -53.7309
rfingers 7.12502
rthumb 23.7028 -82.2894
lclavicle 1.59028e-014 2.8625e-014
lhumerus -30.7727 -5.92724 60.4614
lradius 38.9898
lwrist 2.12058
lhand -21.2364 -10.2147
lfingers 7.12502
lthumb 5.14611 19.7028
rfemur -33.2242 2.51435 0.0296169
rtibia 10.6785
rfoot 5.18558 -25.2429
rtoes -9.15538
lfemur -40.1535 -8.52201 9.03814
ltibia 50.9113
lfoot -30.975 5.34691
ltoes -21.9265
187
root 2.08815 18.409 19.6772 -154.876 -6.16247 192.264
lowerback -19.8777 -6.2182 -14.3536
upperback 1.04979 -5.04529 -1.00835
thorax 13.632 -3.42225 5.29768
lowerneck -4.36964 -10.9851 -0.771583
upperneck 24.9542 -15.3881 5.94225
head 9.08598 -6.21578 0.791355
rclavicle -3.97569e-014 3.81667e-014
rhumerus -49.4214 -15.0136 -79.8821
rradius 40.0383
rwrist -8.13762
rhand -1.83338 -53.7971
rfingers 7.12502
rthumb 23.8332 -82.3386
lclavicle -3.97569e-014 3.81667e-014
lhumerus -30.164 -6.04148 59.9009
lradius 38.9789
lwrist 2.17215
lhand -21.0648 -10.6248
lfingers 7.12502
lthumb 5.31183 19.2886
rfemur -32.9709 2.89645 -0.469029
rtibia 10.0783
rfoot 4.7325 -26.0311
rtoes -8.20578
lfemur -40.4814 -8.76214 9.45006
ltibia 51.03
lfoot -31.0248 5.50372
ltoes -23.016
188
root 2.19194 18.3798 19.6606 -154.676 -6.45778 192.153
lowerback -19.9517 -6.31862 -14.5531
upperback 1.08776 -5.11569 -1.06313
thorax 13.7503 -3.47516 5.30919
lowerneck -4.2609 -10.7894 -1.15919
upperneck 24.8003 -15.1801 6.52932
head 9.08608 -6.09869 1.07207
rclavicle 6.67916e-014 4.77083e-014
rhumerus -49.6129 -14.7834 -80.0189
rradius 40.3024
rwrist -8.49834
rhand -1.71063 -53.6223
rfingers 7.12502
rthumb 23.9509 -82.1484
lclavicle 6.67916e-014 4.77083e-014
lhumerus -30.0731 -6.30473 59.4569
lradius 39.1808
lwrist 2.3048
lhand -21.3555 -10.777
lfingers 7.12502
lthumb 5.03105 19.1433
rfemur -32.8848 3.42112 -0.882945
rtibia 9.54506
rfoot 4.45576 -26.8714
rtoes -7.01955
lfemur -40.8105 -8.82568 9.9504
ltibia 51.205
lfoot -31.0266 5.63293
ltoes -24.5003
189
root 2.29824 18.3489 19.6391 -154.48 -6.76422 192.124
lowerback -19.9504 -6.36011 -14.4574
upperback 1.07991 -5.19228 -1.20771
thorax 13.7301 -3.49957 5.06134
lowerneck -4.16236 -10.7524 -1.19088
upperneck 24.766 -15.1583 6.72643
head 9.075 -6.07228 1.15061
rclavicle 1.66979e-014 1.39944e-013
rhumerus -49.9016 -14.6632 -80.2379
rradius 40.5028
rwrist -8.6313
rhand -1.67493 -53.299
rfingers 7.12502
rthumb 23.9851 -81.8206
lclavicle 1.66979e-014 1.39944e-013
lhumerus -30.1223 -6.72674 58.8392
lradius 39.458
lwrist 2.47755
lhand -21.3199 -10.9063
lfingers 7.12502
lthumb 5.06546 19.0132
rfemur -32.8348 3.90332 -1.14513
rtibia 9.04178
rfoot 4.31145 -27.6863
rtoes -6.51731
lfemur -41.0868 -8.78782 10.532
ltibia 51.3324
lfoot -31.0212 6.12472
ltoes -27.2182
